<svg width="80" height="80" viewBox="0 0 80 80" fill="none" xmlns="http://www.w3.org/2000/svg">
<g clip-path="url(#clip0_493_558)">
<path d="M23.7632 69H53.2368C54.7603 69 56 67.7592 56 66.2344V12.7656C56 11.2408 54.7603 10 53.2368 10H23.7632C22.2397 10 21 11.2408 21 12.7656V66.2344C21 67.7592 22.2397 69 23.7632 69ZM22.8421 12.7656C22.8421 12.5211 22.9391 12.2866 23.1119 12.1138C23.2846 11.9409 23.5189 11.8438 23.7632 11.8438H53.2368C53.4811 11.8438 53.7154 11.9409 53.8881 12.1138C54.0609 12.2866 54.1579 12.5211 54.1579 12.7656V66.2344C54.1579 66.4789 54.0609 66.7134 53.8881 66.8862C53.7154 67.0591 53.4811 67.1562 53.2368 67.1562H23.7632C23.5189 67.1562 23.2846 67.0591 23.1119 66.8862C22.9391 66.7134 22.8421 66.4789 22.8421 66.2344V12.7656Z" fill="#F8F8F8"/>
<path d="M25.6051 59.7812H51.3946C51.6389 59.7812 51.8732 59.6841 52.0459 59.5112C52.2186 59.3384 52.3157 59.1039 52.3157 58.8594V20.1406C52.3157 19.8961 52.2186 19.6616 52.0459 19.4888C51.8732 19.3159 51.6389 19.2188 51.3946 19.2188H25.6051C25.3609 19.2188 25.1266 19.3159 24.9539 19.4888C24.7811 19.6616 24.6841 19.8961 24.6841 20.1406V58.8594C24.6841 59.1039 24.7811 59.3384 24.9539 59.5112C25.1266 59.6841 25.3609 59.7812 25.6051 59.7812ZM26.5262 21.0625H50.4736V57.9375H26.5262V21.0625Z" fill="#F8F8F8"/>
<path d="M39.4212 65.3125C40.4386 65.3125 41.2633 64.487 41.2633 63.4688C41.2633 62.4505 40.4386 61.625 39.4212 61.625C38.4038 61.625 37.5791 62.4505 37.5791 63.4688C37.5791 64.487 38.4038 65.3125 39.4212 65.3125Z" fill="#F8F8F8"/>
<path d="M34.8156 17.375H42.184C42.4283 17.375 42.6626 17.2779 42.8353 17.105C43.008 16.9321 43.1051 16.6976 43.1051 16.4531C43.1051 16.2086 43.008 15.9741 42.8353 15.8013C42.6626 15.6284 42.4283 15.5312 42.184 15.5312H34.8156C34.5713 15.5312 34.337 15.6284 34.1643 15.8013C33.9916 15.9741 33.8945 16.2086 33.8945 16.4531C33.8945 16.6976 33.9916 16.9321 34.1643 17.105C34.337 17.2779 34.5713 17.375 34.8156 17.375Z" fill="#F8F8F8"/>
</g>
<defs>
<clipPath id="clip0_493_558">
<rect width="35" height="59" fill="white" transform="translate(21 10)"/>
</clipPath>
</defs>
</svg>
