<svg width="48" height="47" viewBox="0 0 48 47" fill="none" xmlns="http://www.w3.org/2000/svg">
<path d="M37.5116 33.2986C39.9419 32.8052 42.1021 31.4262 43.573 29.4296C45.0438 27.4329 45.7202 24.961 45.471 22.4937C45.2218 20.0263 44.0647 17.7396 42.2243 16.0774C40.3839 14.4152 37.9915 13.4962 35.5116 13.4986H32.9916C32.329 10.9333 31.0397 8.57263 29.2394 6.62862C27.4391 4.68461 25.1842 3.21811 22.6772 2.36077C20.1702 1.50344 17.4895 1.28211 14.8759 1.71666C12.2622 2.15121 9.79733 3.22804 7.7026 4.85046C5.60787 6.47289 3.94884 8.59012 2.87445 11.0121C1.80007 13.434 1.34397 16.0849 1.54709 18.7266C1.75022 21.3684 2.60621 23.9184 4.03823 26.1476C5.47025 28.3768 7.43345 30.2155 9.75159 31.4986M25.5116 21.4986L17.5116 33.4987H29.5116L21.5116 45.4987" stroke="#1E1E1E" stroke-width="3" stroke-linecap="round" stroke-linejoin="round"/>
</svg>
